<svg width="99" height="100" viewBox="0 0 99 100" fill="none" xmlns="http://www.w3.org/2000/svg">
<path fill-rule="evenodd" clip-rule="evenodd" d="M65.8309 13.323C57.9273 9.80138 49.0971 8.92896 40.6572 10.8358C32.2173 12.7427 24.6199 17.3268 18.9981 23.9043C13.3763 30.4818 10.0313 38.7003 9.46199 47.3342C8.89268 55.9681 11.1295 64.5547 15.839 71.8135C20.5484 79.0722 27.4781 84.6142 35.5946 87.6128C43.711 90.6114 52.5793 90.906 60.8769 88.4527C69.1745 85.9993 76.4567 80.9295 81.6375 73.9993C86.8183 67.0691 89.6201 58.6499 89.625 49.9973V45.8981C89.625 43.4359 91.6211 41.4398 94.0834 41.4398C96.5456 41.4398 98.5417 43.4359 98.5417 45.8981V49.9998C98.5357 60.5753 95.1112 70.868 88.7791 79.3382C82.447 87.8085 73.5465 94.0049 63.4051 97.0034C53.2636 100.002 42.4246 99.6418 32.5045 95.9769C22.5844 92.3119 14.1148 85.5384 8.35876 76.6666C2.60277 67.7948 -0.131181 57.3001 0.56465 46.7475C1.26048 36.195 5.34881 26.1501 12.2199 18.1109C19.091 10.0717 28.3767 4.46904 38.6922 2.1384C49.0076 -0.192235 59.8001 0.874065 69.46 5.17827C71.7091 6.18042 72.72 8.81608 71.7178 11.0652C70.7157 13.3143 68.08 14.3252 65.8309 13.323Z" fill="url(#paint0_linear_2739_34)"/>
<path fill-rule="evenodd" clip-rule="evenodd" d="M97.2343 11.1792C98.9763 12.9195 98.9777 15.7423 97.2375 17.4843L52.6541 62.1122C51.8182 62.949 50.6839 63.4193 49.5011 63.4196C48.3183 63.4199 47.1839 62.9501 46.3475 62.1138L32.9725 48.7388C31.2314 46.9977 31.2314 44.1748 32.9725 42.4337C34.7136 40.6926 37.5365 40.6926 39.2775 42.4337L49.4984 52.6546L90.9293 11.1824C92.6695 9.44043 95.4923 9.43902 97.2343 11.1792Z" fill="url(#paint1_linear_2739_34)"/>
<defs>
<linearGradient id="paint0_linear_2739_34" x1="0.458344" y1="0.932617" x2="116.836" y2="66.5891" gradientUnits="userSpaceOnUse">
<stop stop-color="#FF6709"/>
<stop offset="1" stop-color="#FD5E1A"/>
</linearGradient>
<linearGradient id="paint1_linear_2739_34" x1="31.6667" y1="9.875" x2="101.566" y2="59.1276" gradientUnits="userSpaceOnUse">
<stop stop-color="#FF6709"/>
<stop offset="1" stop-color="#FD5E1A"/>
</linearGradient>
</defs>
</svg>
