<svg width="20" height="21" viewBox="0 0 20 21" fill="none" xmlns="http://www.w3.org/2000/svg">
<path d="M18.5142 15.2665L16.0394 12.7058C16.0371 12.7034 16.0347 12.701 16.0324 12.6987C15.3454 12.0117 14.2336 12.0116 13.5466 12.6987L12.4167 13.8285C11.8964 14.3489 11.0541 14.349 10.5336 13.8285C10.5334 13.8283 10.5332 13.8281 10.5329 13.8278L6.60352 9.99135C6.08313 9.47096 6.08306 8.62866 6.60352 8.10823L7.7334 6.97835C8.41875 6.29304 8.41875 5.17792 7.7334 4.49261L5.24767 2.00687C4.56232 1.3216 3.44724 1.3216 2.76193 2.00687C2.76169 2.00711 1.93318 2.83566 1.93338 2.83543C1.93318 2.83566 1.85826 2.91054 1.85806 2.91078C-0.618807 5.38761 -0.619706 9.3967 1.85845 11.8749L8.65051 18.574C11.1219 21.0454 15.1242 21.0546 17.6055 18.5827C17.6191 18.5702 18.4972 17.7613 18.5103 17.7483C19.1942 17.0642 19.1956 15.9521 18.5142 15.2665ZM3.59052 2.83543C3.81896 2.60699 4.19064 2.60699 4.41907 2.83543L6.90481 5.32116C7.1338 5.55019 7.13383 5.92073 6.90481 6.14976L6.49055 6.56401L3.17622 3.24972L3.59052 2.83543ZM9.47867 17.745L2.68662 11.0459C0.772635 9.1319 0.681854 6.1137 2.3633 4.09394L5.66599 7.39663C4.80095 8.3787 4.83692 9.8819 5.77567 10.8206L9.70578 14.6578C10.6451 15.5964 12.1435 15.6351 13.1284 14.7661L16.4308 18.0686C14.3912 19.7629 11.3911 19.6575 9.47867 17.745ZM17.6887 16.9126L17.2949 17.2754L13.9609 13.9415L14.3752 13.5272C14.6034 13.299 14.9718 13.2983 15.2008 13.5243C15.2054 13.529 17.6771 16.0864 17.6817 16.091C17.9078 16.3172 17.9101 16.6836 17.6887 16.9126Z" fill="#F7FBFE"/>
<path d="M10.0399 0.434082C9.71632 0.434082 9.45398 0.696425 9.45398 1.01998C9.45398 1.34353 9.71632 1.60588 10.0399 1.60588C14.8858 1.60588 18.8283 5.54833 18.8283 10.3943C18.8283 10.7178 19.0906 10.9802 19.4142 10.9802C19.7377 10.9802 20.0001 10.7179 20.0001 10.3943C20.0001 4.88923 15.5453 0.434082 10.0399 0.434082Z" fill="#F7FBFE"/>
<path d="M10.0399 2.77783C9.71632 2.77783 9.45398 3.04018 9.45398 3.36373C9.45398 3.68728 9.71632 3.94963 10.0399 3.94963C13.5935 3.94963 16.4847 6.84075 16.4847 10.3945C16.4847 10.718 16.7471 10.9804 17.0706 10.9804C17.3942 10.9804 17.6565 10.718 17.6565 10.3945C17.6565 6.19466 14.2397 2.77783 10.0399 2.77783Z" fill="#F7FBFE"/>
<path d="M10.0399 5.12158C9.71632 5.12158 9.45398 5.38392 9.45398 5.70748C9.45398 6.03103 9.71632 6.29338 10.0399 6.29338C12.3013 6.29338 14.1411 8.13318 14.1411 10.3946C14.1411 10.7182 14.4035 10.9805 14.727 10.9805C15.0506 10.9805 15.3129 10.7182 15.3129 10.3946C15.3129 7.48704 12.9474 5.12158 10.0399 5.12158Z" fill="#F7FBFE"/>
</svg>
